{
  "asset": {
    "version": "2.0",
    "generator": "ManualEngine authored scene import test fixture"
  },
  "extensionsUsed": [
    "KHR_lights_punctual"
  ],
  "scene": 0,
  "scenes": [
    {
      "nodes": [0]
    }
  ],
  "nodes": [
    {
      "name": "RootOffset",
      "translation": [10.0, 0.0, 0.0],
      "children": [1, 2, 3, 4, 5]
    },
    {
      "name": "MeshChild",
      "translation": [0.0, 2.0, 0.0],
      "mesh": 0
    },
    {
      "name": "FixturePointLight",
      "translation": [1.0, 3.0, 4.0],
      "extensions": {
        "KHR_lights_punctual": {
          "light": 0
        }
      }
    },
    {
      "name": "FixtureSpotLight",
      "translation": [2.0, 3.0, 4.0],
      "extensions": {
        "KHR_lights_punctual": {
          "light": 1
        }
      }
    },
    {
      "name": "FixtureZeroLight",
      "translation": [3.0, 3.0, 4.0],
      "extensions": {
        "KHR_lights_punctual": {
          "light": 2
        }
      }
    },
    {
      "name": "FixtureDirectionalLight",
      "translation": [4.0, 3.0, 4.0],
      "extensions": {
        "KHR_lights_punctual": {
          "light": 3
        }
      }
    }
  ],
  "meshes": [
    {
      "name": "QuadMesh",
      "primitives": [
        {
          "attributes": {
            "POSITION": 0,
            "NORMAL": 1,
            "TANGENT": 2,
            "TEXCOORD_0": 3,
            "TEXCOORD_1": 4,
            "COLOR_0": 5
          },
          "indices": 6,
          "material": 0
        }
      ]
    }
  ],
  "materials": [
    {
      "name": "FixtureBlendDoubleSided",
      "doubleSided": true,
      "alphaMode": "BLEND",
      "pbrMetallicRoughness": {
        "baseColorFactor": [0.25, 0.5, 0.75, 0.6],
        "baseColorTexture": {
          "index": 0
        },
        "metallicFactor": 0.2,
        "roughnessFactor": 0.8,
        "metallicRoughnessTexture": {
          "index": 1
        }
      },
      "normalTexture": {
        "index": 2,
        "scale": 0.75
      },
      "occlusionTexture": {
        "index": 3,
        "strength": 0.6
      },
      "emissiveFactor": [0.1, 0.2, 0.3],
      "emissiveTexture": {
        "index": 4
      }
    }
  ],
  "samplers": [
    {
      "magFilter": 9729,
      "minFilter": 9987,
      "wrapS": 10497,
      "wrapT": 10497
    }
  ],
  "textures": [
    {
      "sampler": 0,
      "source": 0
    },
    {
      "sampler": 0,
      "source": 1
    },
    {
      "sampler": 0,
      "source": 2
    },
    {
      "sampler": 0,
      "source": 3
    },
    {
      "sampler": 0,
      "source": 4
    }
  ],
  "images": [
    {
      "uri": "textures/base_color.png"
    },
    {
      "uri": "textures/metallic_roughness.png"
    },
    {
      "uri": "textures/normal.png"
    },
    {
      "uri": "textures/occlusion.png"
    },
    {
      "uri": "textures/emissive.png"
    }
  ],
  "extensions": {
    "KHR_lights_punctual": {
      "lights": [
        {
          "name": "FixturePointLight",
          "type": "point",
          "color": [1.0, 0.8, 0.6],
          "intensity": 5.0,
          "range": 12.0
        },
        {
          "name": "FixtureSpotLight",
          "type": "spot",
          "color": [0.4, 0.6, 1.0],
          "intensity": 4.0,
          "range": 10.0,
          "spot": {
            "innerConeAngle": 0.2,
            "outerConeAngle": 0.7
          }
        },
        {
          "name": "FixtureZeroLight",
          "type": "point",
          "color": [1.0, 1.0, 1.0],
          "intensity": 0.0,
          "range": 8.0
        },
        {
          "name": "FixtureDirectionalLight",
          "type": "directional",
          "color": [1.0, 1.0, 0.9],
          "intensity": 2.0
        }
      ]
    }
  },
  "buffers": [
    {
      "uri": "data:application/octet-stream;base64,",
      "byteLength": 300
    }
  ],
  "bufferViews": [
    {
      "buffer": 0,
      "byteOffset": 0,
      "byteLength": 48,
      "target": 34962
    },
    {
      "buffer": 0,
      "byteOffset": 48,
      "byteLength": 48,
      "target": 34962
    },
    {
      "buffer": 0,
      "byteOffset": 96,
      "byteLength": 64,
      "target": 34962
    },
    {
      "buffer": 0,
      "byteOffset": 160,
      "byteLength": 32,
      "target": 34962
    },
    {
      "buffer": 0,
      "byteOffset": 192,
      "byteLength": 32,
      "target": 34962
    },
    {
      "buffer": 0,
      "byteOffset": 224,
      "byteLength": 64,
      "target": 34962
    },
    {
      "buffer": 0,
      "byteOffset": 288,
      "byteLength": 12,
      "target": 34963
    }
  ],
  "accessors": [
    {
      "bufferView": 0,
      "componentType": 5126,
      "count": 4,
      "type": "VEC3",
      "min": [0.0, 0.0, 0.0],
      "max": [1.0, 1.0, 0.0]
    },
    {
      "bufferView": 1,
      "componentType": 5126,
      "count": 4,
      "type": "VEC3"
    },
    {
      "bufferView": 2,
      "componentType": 5126,
      "count": 4,
      "type": "VEC4"
    },
    {
      "bufferView": 3,
      "componentType": 5126,
      "count": 4,
      "type": "VEC2"
    },
    {
      "bufferView": 4,
      "componentType": 5126,
      "count": 4,
      "type": "VEC2"
    },
    {
      "bufferView": 5,
      "componentType": 5126,
      "count": 4,
      "type": "VEC4"
    },
    {
      "bufferView": 6,
      "componentType": 5123,
      "count": 6,
      "type": "SCALAR"
    }
  ]
}
