{
  "asset": {
    "version": "2.0",
    "generator": "ManualEngine skinned animation import test fixture"
  },
  "scene": 0,
  "scenes": [
    {
      "nodes": [0, 3]
    }
  ],
  "nodes": [
    {
      "name": "JointRoot",
      "translation": [0.0, 0.0, 0.0],
      "children": [1]
    },
    {
      "name": "JointTip",
      "translation": [0.0, 1.0, 0.0]
    },
    {
      "name": "UnusedStaticNode"
    },
    {
      "name": "SkinnedMeshNode",
      "mesh": 0,
      "skin": 0
    }
  ],
  "skins": [
    {
      "name": "TwoJointSkin",
      "skeleton": 0,
      "joints": [0, 1],
      "inverseBindMatrices": 5
    }
  ],
  "meshes": [
    {
      "name": "SkinnedTriangle",
      "primitives": [
        {
          "attributes": {
            "POSITION": 0,
            "NORMAL": 1,
            "JOINTS_0": 2,
            "WEIGHTS_0": 3
          },
          "indices": 4,
          "material": 0
        }
      ]
    }
  ],
  "materials": [
    {
      "name": "SkinnedFixtureMaterial",
      "pbrMetallicRoughness": {
        "baseColorFactor": [0.8, 0.7, 0.6, 1.0],
        "metallicFactor": 0.0,
        "roughnessFactor": 1.0
      }
    }
  ],
  "animations": [
    {
      "name": "JointWave",
      "samplers": [
        {
          "input": 6,
          "output": 7,
          "interpolation": "LINEAR"
        },
        {
          "input": 6,
          "output": 8,
          "interpolation": "LINEAR"
        }
      ],
      "channels": [
        {
          "sampler": 0,
          "target": {
            "node": 1,
            "path": "rotation"
          }
        },
        {
          "sampler": 1,
          "target": {
            "node": 0,
            "path": "translation"
          }
        }
      ]
    },
    {
      "name": "JointNod",
      "samplers": [
        {
          "input": 6,
          "output": 7,
          "interpolation": "LINEAR"
        },
        {
          "input": 6,
          "output": 8,
          "interpolation": "LINEAR"
        }
      ],
      "channels": [
        {
          "sampler": 0,
          "target": {
            "node": 0,
            "path": "rotation"
          }
        },
        {
          "sampler": 1,
          "target": {
            "node": 1,
            "path": "translation"
          }
        }
      ]
    }
  ],
  "buffers": [
    {
      "uri": "data:application/octet-stream;base64,",
      "byteLength": 332
    }
  ],
  "bufferViews": [
    {
      "buffer": 0,
      "byteOffset": 0,
      "byteLength": 36,
      "target": 34962
    },
    {
      "buffer": 0,
      "byteOffset": 36,
      "byteLength": 36,
      "target": 34962
    },
    {
      "buffer": 0,
      "byteOffset": 72,
      "byteLength": 12,
      "target": 34962
    },
    {
      "buffer": 0,
      "byteOffset": 84,
      "byteLength": 48,
      "target": 34962
    },
    {
      "buffer": 0,
      "byteOffset": 132,
      "byteLength": 6,
      "target": 34963
    },
    {
      "buffer": 0,
      "byteOffset": 140,
      "byteLength": 128
    },
    {
      "buffer": 0,
      "byteOffset": 268,
      "byteLength": 8
    },
    {
      "buffer": 0,
      "byteOffset": 276,
      "byteLength": 32
    },
    {
      "buffer": 0,
      "byteOffset": 308,
      "byteLength": 24
    }
  ],
  "accessors": [
    {
      "bufferView": 0,
      "componentType": 5126,
      "count": 3,
      "type": "VEC3",
      "min": [0.0, 0.0, 0.0],
      "max": [1.0, 1.0, 0.0]
    },
    {
      "bufferView": 1,
      "componentType": 5126,
      "count": 3,
      "type": "VEC3"
    },
    {
      "bufferView": 2,
      "componentType": 5121,
      "count": 3,
      "type": "VEC4"
    },
    {
      "bufferView": 3,
      "componentType": 5126,
      "count": 3,
      "type": "VEC4"
    },
    {
      "bufferView": 4,
      "componentType": 5123,
      "count": 3,
      "type": "SCALAR"
    },
    {
      "bufferView": 5,
      "componentType": 5126,
      "count": 2,
      "type": "MAT4"
    },
    {
      "bufferView": 6,
      "componentType": 5126,
      "count": 2,
      "type": "SCALAR",
      "min": [0.0],
      "max": [1.0]
    },
    {
      "bufferView": 7,
      "componentType": 5126,
      "count": 2,
      "type": "VEC4"
    },
    {
      "bufferView": 8,
      "componentType": 5126,
      "count": 2,
      "type": "VEC3"
    }
  ]
}
